# xmcd
#
# Track frame offsets:
#   150
#   21272
#   37421
#   54409
#   73276
#   93782
#   117809
#   139879
#   159274
#   178415
#   197642
#   218942
#   244153
#   264264
#   286330
#   304527
#   322193
#   341352
#
# Disc length: 4796 seconds
#
# Revision: 0
# Processed by: cddbd v1.4PL0 Copyright (c) Steve Scherf et al.
# Submitted via: Click'N Design 3D 4.8
#
DISCID=1012ba12
DTITLE=GHETTO HYPE 2K3 - MIX CD
DYEAR=2003
DGENRE=Hip Hop
TTITLE0=LUDACRIS--ACT A FOOL
TTITLE1=CHINGY--RIGHT THURR
TTITLE2=50 CENT--21 QUESTIONS
TTITLE3=50 CENT--P.I.M.P.
TTITLE4=BIG HAWK--YOU ALREADY KNOW
TTITLE5=BONE CRUSHER--I AIN'T NEVER SCARED
TTITLE6=BUSTA RHYMES--I KNOW WHAT YOU WANT
TTITLE7=LIL FLIP FT DAVID BANNER--LIKE A PIMP
TTITLE8=DA BRAT--I'M IN LOVE WIT U
TTITLE9=BIG HAWK--DIGGIN' THA SOUTH
TTITLE10=JAY Z---THE LA LA SONG
TTITLE11=LIL JON AND THE EASTSIDE BOYZ--GET LOW
TTITLE12=MURPHY LEE FT NELLY--SHAKE YOUR TAILFEATHER
TTITLE13=NELLY-- PIMP JUICE
TTITLE14=NICK CANNON--YOUR POPS DON'T LIKE ME
TTITLE15=PAPA RUE FT LIL FLIP--SOUTHSIDE (REMIX)
TTITLE16=ROSCOE-- HEAD TO TOE
TTITLE17=THREE SIX MAFIA--RIDIN' SPINNERS
EXTD=
EXTT0=
EXTT1=
EXTT2=
EXTT3=
EXTT4=
EXTT5=
EXTT6=
EXTT7=
EXTT8=
EXTT9=
EXTT10=
EXTT11=
EXTT12=
EXTT13=
EXTT14=
EXTT15=
EXTT16=
EXTT17=
PLAYORDER=
